<?xml version="1.0" standalone="no"?>
<!DOCTYPE svg PUBLIC "-//W3C//DTD SVG 20010904//EN"
 "http://www.w3.org/TR/2001/REC-SVG-20010904/DTD/svg10.dtd">
<svg version="1.0" xmlns="http://www.w3.org/2000/svg"
 width="512.000000pt" height="512.000000pt" viewBox="0 0 512.000000 512.000000"
 preserveAspectRatio="xMidYMid meet">
<metadata>
Created by potrace 1.11, written by Peter Selinger 2001-2013
</metadata>
<g transform="translate(0.000000,512.000000) scale(0.100000,-0.100000)"
fill="#000000" stroke="none">
<path d="M1230 5113 c-197 -9 -398 -52 -557 -121 -293 -126 -467 -319 -582
-646 -75 -213 -86 -437 -86 -1811 0 -1058 10 -1434 39 -1587 29 -146 106 -333
192 -467 100 -152 211 -247 412 -347 120 -61 217 -89 357 -104 376 -41 2756
-40 3091 0 288 35 586 189 749 387 66 81 143 226 185 351 75 223 85 448 85
1842 -1 1435 -6 1522 -109 1788 -106 276 -227 420 -456 544 -193 105 -382 155
-640 168 -161 8 -2506 11 -2680 3z m1807 -411 c212 -55 525 -190 690 -297 254
-166 482 -390 645 -635 123 -185 254 -481 320 -721 22 -81 23 -98 23 -489 l0
-405 -29 -100 c-74 -254 -195 -528 -311 -700 -160 -239 -389 -468 -624 -625
-238 -159 -621 -299 -916 -335 -297 -35 -516 -29 -710 20 -161 41 -452 142
-546 189 -335 168 -678 496 -897 859 -106 175 -249 546 -272 704 -5 37 -10
235 -10 438 l0 371 60 172 c69 200 114 311 171 425 159 315 440 622 761 831
203 132 582 284 784 315 33 5 221 8 419 7 329 -3 367 -5 442 -24z"/>
<path d="M2325 4404 c-435 -65 -793 -241 -1085 -534 -729 -728 -728 -1915 2
-2641 264 -263 583 -433 958 -510 102 -21 141 -24 350 -24 206 0 248 3 345 23
821 173 1407 817 1496 1647 15 144 6 378 -21 525 -120 660 -605 1218 -1240
1431 -198 66 -292 80 -545 84 -126 2 -243 1 -260 -1z m-890 -504 c25 -50 147
-235 187 -284 24 -28 24 -28 62 -12 48 20 118 21 156 1 34 -18 34 -16 19 -64
-10 -33 -8 -41 25 -96 33 -54 44 -84 75 -200 8 -27 34 -65 82 -117 39 -43 74
-78 77 -78 4 0 6 138 4 307 -2 169 0 318 3 331 5 19 11 23 38 20 30 -3 32 -6
39 -53 12 -92 28 -378 28 -521 0 -110 3 -143 14 -147 7 -3 167 -9 355 -13
l341 -7 0 39 c0 68 29 517 37 564 6 42 7 40 14 -40 4 -47 10 -194 14 -327 l8
-243 91 0 c50 0 148 -3 219 -7 74 -3 127 -2 127 3 0 5 -27 38 -59 74 l-58 64
-92 -47 c-85 -44 -129 -56 -144 -41 -3 3 32 43 79 88 l84 81 -60 95 c-62 98
-95 172 -106 239 -5 33 -3 41 14 50 47 25 57 16 121 -106 33 -65 71 -135 84
-157 l24 -38 84 92 c87 96 162 160 186 160 23 0 47 -69 34 -97 -6 -12 -62 -76
-125 -141 l-115 -118 56 -100 56 -101 136 -11 c75 -6 161 -19 191 -29 l55 -18
-165 -6 c-186 -7 -563 -27 -657 -35 l-63 -6 0 -66 c1 -227 21 -646 30 -652 7
-4 82 -10 168 -14 356 -15 631 -38 690 -57 27 -9 32 -15 32 -43 0 -17 -5 -37
-12 -44 -16 -16 -315 -16 -604 -1 -115 6 -220 9 -232 7 -19 -3 -18 -7 24 -57
25 -30 65 -76 90 -104 l44 -50 39 27 c68 48 135 54 203 20 32 -16 38 -31 27
-62 -8 -20 -1 -32 52 -85 34 -34 70 -80 80 -102 24 -51 24 -145 2 -207 l-16
-47 58 -78 c59 -79 52 -77 -42 11 l-43 40 -27 -22 c-82 -65 -181 -102 -274
-102 -82 0 -129 59 -150 189 -14 82 -1 202 31 295 l19 55 -69 73 c-37 40 -71
70 -76 65 -4 -4 7 -143 24 -310 40 -374 40 -360 2 -374 l-30 -11 -20 66 c-29
97 -56 272 -75 477 -28 310 -25 298 -60 306 -34 9 -528 49 -597 49 l-46 0 -6
-132 c-8 -160 -25 -637 -27 -728 -1 -54 -2 -60 -9 -35 -18 61 -31 269 -37 582
l-6 322 -26 5 c-14 3 -96 13 -181 21 -194 19 -375 42 -460 58 l-65 12 65 6
c36 4 201 7 367 8 281 1 301 2 297 19 -2 9 -8 148 -14 307 -6 160 -13 304 -15
321 l-5 31 -285 7 c-156 3 -311 9 -344 12 -53 6 -60 9 -64 32 -8 40 8 69 40
76 15 3 136 10 267 16 132 6 242 13 245 16 3 2 -14 23 -36 46 l-42 41 -59 -26
c-46 -21 -75 -27 -131 -27 -67 0 -73 2 -110 36 -60 54 -74 100 -68 230 2 60
10 127 17 149 l12 40 -75 112 c-79 119 -137 241 -145 310 -4 37 -2 42 19 45
33 6 36 3 64 -52z m980 -433 c33 -48 65 -87 70 -87 6 0 46 26 91 58 44 31 93
64 108 72 26 14 29 13 47 -9 11 -13 22 -35 25 -48 9 -32 -28 -71 -126 -131
-41 -25 -76 -47 -78 -48 -2 -1 27 -46 64 -100 38 -56 62 -100 55 -102 -15 -5
-94 42 -145 86 -22 20 -48 42 -57 49 -13 11 -25 7 -74 -22 -32 -20 -61 -33
-64 -29 -3 3 9 34 28 68 l33 63 -51 84 c-66 109 -72 139 -35 168 15 12 32 20
38 18 6 -2 38 -42 71 -90z m-390 -737 c9 -17 13 -40 10 -51 -8 -23 -99 -93
-197 -150 -37 -22 -70 -44 -73 -50 -4 -6 12 -37 34 -69 23 -32 50 -78 61 -102
19 -42 26 -88 14 -88 -3 0 -41 32 -83 71 -110 104 -137 122 -164 115 -13 -3
-70 -37 -128 -75 -57 -38 -105 -65 -107 -61 -7 18 33 75 104 150 l75 78 -26
53 c-15 28 -29 76 -32 105 -5 51 -5 53 21 60 40 10 52 1 93 -70 20 -37 40 -66
44 -66 5 0 162 95 279 169 30 20 59 12 75 -19z m1491 -26 c19 -9 35 -20 35
-25 23 -158 9 -200 -102 -309 -92 -91 -192 -131 -251 -99 -33 17 -61 93 -53
142 32 194 237 355 371 291z m-1792 -849 c20 -35 41 -67 46 -70 5 -3 50 19
100 49 97 58 175 89 212 84 20 -3 23 -10 26 -55 l3 -52 -108 -55 c-163 -82
-156 -69 -91 -157 67 -90 94 -136 85 -145 -7 -8 -125 67 -194 122 -23 19 -48
34 -56 34 -15 0 -161 -95 -211 -137 -16 -13 -31 -22 -33 -19 -11 11 41 96 102
166 36 41 65 79 65 83 0 4 -12 31 -26 59 -14 28 -28 75 -31 104 l-6 54 41 0
c39 0 41 -2 76 -65z m955 -59 c34 -37 70 -165 70 -251 1 -91 -21 -137 -93
-202 -120 -106 -251 -140 -315 -79 -50 48 -75 119 -75 211 0 69 5 90 31 148
56 118 162 207 247 207 44 0 68 9 59 23 -10 17 49 -27 76 -57z"/>
<path d="M1763 3493 c-24 -9 -13 -36 43 -104 84 -103 94 -89 31 41 -30 62 -46
75 -74 63z"/>
<path d="M1644 3345 c-3 -14 -4 -54 -2 -90 6 -90 21 -105 109 -105 37 0 70 4
73 9 7 11 -151 211 -167 211 -4 0 -9 -11 -13 -25z"/>
<path d="M2341 2841 l-34 -6 47 -57 c26 -32 54 -58 63 -58 9 0 30 11 47 24 51
38 91 55 148 62 75 8 108 -6 108 -48 0 -47 -9 -56 -71 -74 -61 -18 -124 -49
-134 -64 -6 -9 93 -141 115 -155 15 -9 107 75 131 119 l23 45 -22 77 c-13 42
-29 92 -37 111 l-14 33 -168 -1 c-92 -1 -183 -4 -202 -8z"/>
<path d="M2750 2842 c0 -5 18 -43 40 -86 33 -64 40 -87 40 -135 0 -70 -32
-139 -89 -195 l-40 -39 39 -46 c21 -26 69 -80 107 -121 l68 -74 6 75 c4 41 7
199 8 352 l1 277 -90 0 c-49 0 -90 -4 -90 -8z"/>
<path d="M2252 2434 l3 -279 145 -8 c80 -4 198 -6 262 -5 l118 3 -78 84 -78
85 -54 -27 c-30 -15 -69 -27 -88 -27 -117 0 -184 126 -149 280 l15 64 -28 36
c-15 19 -37 44 -49 54 l-21 19 2 -279z"/>
<path d="M2430 2457 c0 -24 5 -48 12 -55 15 -15 88 -16 88 -2 0 13 -79 100
-91 100 -5 0 -9 -19 -9 -43z"/>
<path d="M3371 1696 c-19 -7 -36 -17 -38 -23 -5 -13 202 -262 224 -270 35 -14
52 69 28 135 -22 55 -131 172 -160 171 -11 0 -35 -6 -54 -13z"/>
<path d="M3269 1563 c-17 -51 -18 -231 -1 -261 12 -20 18 -22 65 -17 69 8 147
32 174 53 22 17 22 17 -93 140 -64 67 -120 122 -124 122 -5 0 -14 -17 -21 -37z"/>
<path d="M3435 2581 c-49 -12 -90 -38 -123 -76 -28 -31 -72 -105 -72 -120 0
-15 65 -1 121 27 68 34 184 139 177 161 -5 14 -60 19 -103 8z"/>
<path d="M2515 1684 c-43 -22 -103 -83 -126 -126 -26 -51 -25 -133 2 -177 18
-31 23 -33 57 -26 85 15 201 84 228 136 17 33 19 138 3 173 -6 13 -21 27 -33
30 -39 11 -101 6 -131 -10z"/>
</g>
</svg>
